<svg xmlns="http://www.w3.org/2000/svg" xml:space="preserve" x="0" y="0" enable-background="new 0 0 293.5 293.5" version="1.1" viewBox="0 0 293.5 293.5"><path d="M171.6 0h-49.7c-8.6 0-15.6 7-15.6 15.6v49.7c0 8.6 7 15.6 15.6 15.6h49.7c8.6 0 15.6-7 15.6-15.6V15.6c0-8.6-7-15.6-15.6-15.6zM171.6 106.3h-49.7c-8.6 0-15.6 7-15.6 15.6v49.7c0 8.6 7 15.6 15.6 15.6h49.7c8.6 0 15.6-7 15.6-15.6v-49.7c0-8.6-7-15.6-15.6-15.6zM171.6 212.6h-49.7c-8.6 0-15.6 7-15.6 15.6v49.7c0 8.6 7 15.6 15.6 15.6h49.7c8.6 0 15.6-7 15.6-15.6v-49.7c0-8.6-7-15.6-15.6-15.6z"/></svg>