<svg xmlns="http://www.w3.org/2000/svg" xml:space="preserve" x="0" y="0" enable-background="new 0 0 512 512" version="1.1" viewBox="0 0 512 512"><path d="M256 172.5A83.7 83.7 0 0 0 186.3 302l115.8-115.7a83 83 0 0 0-46.1-13.8zM325.7 210 209.9 325.6a83 83 0 0 0 46.1 13.8A83.7 83.7 0 0 0 325.7 210z"/><path d="M437.1 74.9a256.4 256.4 0 0 0-362.2 0 256.4 256.4 0 0 0 0 362.2c50 50 115.5 74.9 181.1 74.9s131.2-25 181.1-74.9a256.4 256.4 0 0 0 0-362.2zM386 149.7 349.6 186A117 117 0 0 1 256 372.9a116 116 0 0 1-70-23.3l-36.3 36.3a16.7 16.7 0 0 1-23.6 0 16.7 16.7 0 0 1 0-23.6l36.3-36.4A117 117 0 0 1 256 139.1a116 116 0 0 1 70 23.3l36.3-36.3a16.7 16.7 0 1 1 23.6 23.6z"/></svg>