<svg xmlns="http://www.w3.org/2000/svg" xml:space="preserve" x="0" y="0" enable-background="new 0 0 23.6 23.6" version="1.1" viewBox="0 0 23.6 23.6"><path fill="#030104" d="M11.8 0a11.8 11.8 0 1 0 0 23.6 11.8 11.8 0 0 0 0-23.6zm2.5 18.3-1.5.6-1.2.1c-.8 0-1.4-.1-1.8-.5s-.6-.8-.6-1.4a5 5 0 0 1 .2-1.4l.8-2.7a13.8 13.8 0 0 0 .2-1.3c0-.4 0-.6-.2-.7-.1-.2-.4-.3-.8-.3l-.6.1-.5.2.2-.8 1.4-.5c.4-.2.9-.3 1.3-.3.7 0 1.3.2 1.7.6.4.3.6.8.6 1.4a8 8 0 0 1-.2 1.4l-.8 2.7a7.6 7.6 0 0 0-.2 1.3c0 .4 0 .6.2.8l.8.1h.7l.5-.2-.2.8zM14 7.4c-.3.4-.7.5-1.2.5s-1-.1-1.3-.5c-.4-.3-.6-.7-.6-1.2 0-.4.2-.8.6-1.2.3-.3.8-.5 1.3-.5s.9.2 1.2.5c.4.4.6.8.6 1.2 0 .5-.2.9-.6 1.2z"/></svg>