<svg width="192" height="192" viewBox="0 0 192 192" fill="none" xmlns="http://www.w3.org/2000/svg">
<rect width="192" height="192" fill="white"/>
<path d="M128.546 75.4326C128.009 75.4326 127.613 75.3643 127.359 75.2275C127.105 75.0908 126.979 74.8857 126.979 74.6123V72.21C126.979 71.9365 127.105 71.7314 127.359 71.5947C127.613 71.458 128.009 71.3896 128.546 71.3896H129.381C129.918 71.3896 130.309 71.458 130.553 71.5947C130.807 71.7314 130.934 71.9365 130.934 72.21V74.6123C130.934 74.8857 130.807 75.0908 130.553 75.2275C130.309 75.3643 129.918 75.4326 129.381 75.4326H128.546ZM127.345 88.3086C127.062 88.3086 126.793 88.2598 126.539 88.1621C126.285 88.0742 126.158 87.9375 126.158 87.752C126.158 87.6445 126.183 87.5127 126.231 87.3564C126.28 87.2002 126.339 87.0439 126.407 86.8877C126.681 86.2334 126.9 85.5645 127.066 84.8809C127.242 84.1973 127.33 83.2988 127.33 82.1855C127.33 81.4238 127.848 81.043 128.883 81.043H129.381C129.908 81.043 130.299 81.1504 130.553 81.3652C130.807 81.5703 130.934 81.8438 130.934 82.1855C130.934 83.0938 130.719 84.0264 130.289 84.9834C129.869 85.9307 129.371 86.7217 128.795 87.3564C128.219 87.9912 127.735 88.3086 127.345 88.3086Z" fill="black"/>
<path d="M128.546 135.671C128.009 135.671 127.613 135.603 127.359 135.466C127.105 135.329 126.979 135.124 126.979 134.851V132.448C126.979 132.175 127.105 131.97 127.359 131.833C127.613 131.696 128.009 131.628 128.546 131.628H129.381C129.918 131.628 130.309 131.696 130.553 131.833C130.807 131.97 130.934 132.175 130.934 132.448V134.851C130.934 135.124 130.807 135.329 130.553 135.466C130.309 135.603 129.918 135.671 129.381 135.671H128.546ZM127.345 148.547C127.062 148.547 126.793 148.498 126.539 148.4C126.285 148.312 126.158 148.176 126.158 147.99C126.158 147.883 126.183 147.751 126.231 147.595C126.28 147.438 126.339 147.282 126.407 147.126C126.681 146.472 126.9 145.803 127.066 145.119C127.242 144.436 127.33 143.537 127.33 142.424C127.33 141.662 127.848 141.281 128.883 141.281H129.381C129.908 141.281 130.299 141.389 130.553 141.604C130.807 141.809 130.934 142.082 130.934 142.424C130.934 143.332 130.719 144.265 130.289 145.222C129.869 146.169 129.371 146.96 128.795 147.595C128.219 148.229 127.735 148.547 127.345 148.547Z" fill="black"/>
<path d="M75.2266 88.1172C72.4401 88.1172 71.0469 87.388 71.0469 85.9297V41.4766C71.0469 40.7214 71.3854 40.1615 72.0625 39.7969C72.7396 39.4062 73.7943 39.2109 75.2266 39.2109H78.8984C81.112 39.2109 82.5573 39.849 83.2344 41.125L94.9141 61.8672L95.5 62.8828L96.0859 61.6719L107.844 41.125C108.547 39.849 110.005 39.2109 112.219 39.2109H115.852C118.638 39.2109 120.031 39.9661 120.031 41.4766V85.9297C120.031 87.388 118.638 88.1172 115.852 88.1172H113.82C111.034 88.1172 109.641 87.388 109.641 85.9297V57.1406L109.367 57.0625L99.2891 75.0703C98.6901 75.9557 97.7656 76.3984 96.5156 76.3984H94.5234C93.8724 76.3984 93.3255 76.2943 92.8828 76.0859C92.4401 75.8516 92.0625 75.513 91.75 75.0703L81.6328 57.0625L81.3594 57.1406V85.9297C81.3594 87.388 79.9792 88.1172 77.2188 88.1172H75.2266ZM78.4688 148.117C75.6302 148.117 74.2109 147.609 74.2109 146.594C74.2109 146.307 74.3021 145.891 74.4844 145.344L89.7969 100.695C90.1615 99.7057 91.4766 99.2109 93.7422 99.2109H97.3359C99.6016 99.2109 100.917 99.7057 101.281 100.695L116.594 145.344C116.724 145.865 116.789 146.281 116.789 146.594C116.789 147.115 116.503 147.505 115.93 147.766C115.383 148 114.51 148.117 113.312 148.117H110.266C109.172 148.117 108.286 148.013 107.609 147.805C106.958 147.57 106.555 147.193 106.398 146.672L103.586 138.195H87.2188L84.4062 146.672C84.1198 147.635 83.0521 148.117 81.2031 148.117H78.4688ZM100.617 129.016L96.6719 116.672C96.4375 116.047 96.2292 115.331 96.0469 114.523C95.8906 113.716 95.7474 112.948 95.6172 112.219H95.3438L95.1875 113.078C94.9271 114.615 94.6276 115.812 94.2891 116.672L90.1875 129.016H100.617Z" fill="black"/>
<path d="M40.4595 160.28C37.5542 160.28 34.9622 159.511 32.6836 157.973C30.4049 156.492 28.6105 154.413 27.3003 151.735C26.047 149.058 25.4204 146.01 25.4204 142.592V117.128C25.4204 112.058 24.8792 108.213 23.7969 105.593C22.7715 102.915 20.9486 101.007 18.3281 99.8677C16.79 98.9562 15.6507 97.9593 14.9102 96.877C14.2266 95.7376 13.8848 94.228 13.8848 92.3481V90.4683C13.8848 88.5884 14.2266 87.0788 14.9102 85.9395C15.6507 84.8001 16.79 83.7747 18.3281 82.8633C20.9486 81.7809 22.7715 79.9295 23.7969 77.3091C24.8792 74.6317 25.4204 70.7865 25.4204 65.7734V40.2241C25.4204 36.8062 26.047 33.7585 27.3003 31.0811C28.6105 28.4036 30.4049 26.3244 32.6836 24.8433C34.9622 23.3621 37.5542 22.6216 40.4595 22.6216H46.4409C48.036 22.6216 49.1753 23.1058 49.8589 24.0742C50.5994 24.9857 50.9697 26.4953 50.9697 28.603V30.7393C50.9697 32.7331 50.6564 34.2427 50.0298 35.2681C49.4032 36.2935 48.4062 36.8346 47.0391 36.8916H47.2954C45.7004 36.8916 44.561 37.3188 43.8774 38.1733C43.2508 38.9709 42.9375 40.3381 42.9375 42.2749V68.166C42.9375 73.7487 42.026 78.5623 40.2031 82.6069C38.4372 86.5946 35.9022 89.5283 32.5981 91.4082C35.9591 93.3451 38.5226 96.3073 40.2886 100.295C42.0545 104.226 42.9375 109.011 42.9375 114.65V140.542C42.9375 142.421 43.2223 143.789 43.792 144.643C44.3617 145.498 45.2731 145.925 46.5264 145.925H46.6973C48.1784 146.039 49.2607 146.58 49.9443 147.548C50.6279 148.517 50.9697 150.026 50.9697 152.077V154.128C50.9697 156.293 50.5994 157.859 49.8589 158.828C49.1753 159.796 48.036 160.28 46.4409 160.28H40.4595Z" fill="black"/>
<path d="M146.584 162.28C144.989 162.28 143.822 161.796 143.081 160.828C142.397 159.859 142.056 158.293 142.056 156.128V154.077C142.056 151.912 142.369 150.346 142.996 149.377C143.679 148.409 144.79 147.925 146.328 147.925H146.414C147.724 147.925 148.664 147.469 149.233 146.558C149.803 145.703 150.088 144.364 150.088 142.542V116.65C150.088 111.011 150.971 106.226 152.737 102.295C154.503 98.3073 157.066 95.3451 160.427 93.4082C157.123 91.5283 154.56 88.5946 152.737 84.6069C150.971 80.5623 150.088 75.7487 150.088 70.166V44.2749C150.088 42.2811 149.803 40.8854 149.233 40.0879C148.664 39.2904 147.581 38.8916 145.986 38.8916H145.815C144.505 38.8916 143.537 38.3789 142.91 37.3535C142.34 36.3281 142.056 34.79 142.056 32.7393V30.603C142.056 28.4953 142.397 26.9857 143.081 26.0742C143.822 25.1058 144.989 24.6216 146.584 24.6216H152.566C155.414 24.6216 157.978 25.3906 160.256 26.9287C162.592 28.4098 164.386 30.4891 165.64 33.1665C166.95 35.7869 167.605 38.8062 167.605 42.2241V67.7734C167.605 72.7865 168.118 76.6317 169.143 79.3091C170.225 81.9295 172.077 83.7809 174.697 84.8633C176.235 85.7747 177.346 86.8001 178.03 87.9395C178.77 89.0788 179.141 90.5884 179.141 92.4683V94.3481C179.141 96.228 178.77 97.7376 178.03 98.877C177.346 99.9593 176.235 100.956 174.697 101.868C172.077 103.007 170.225 104.915 169.143 107.593C168.118 110.213 167.605 114.058 167.605 119.128V144.592C167.605 148.01 166.95 151.058 165.64 153.735C164.386 156.413 162.592 158.492 160.256 159.973C157.978 161.511 155.414 162.28 152.566 162.28H146.584Z" fill="black"/>
</svg>
